# xmcd
#
# Track frame offsets: 
#        150
#        17502
#        33210
#        57975
#        73555
#        97297
#        114130
#        136892
#        152825
#        168535
#        182882
#        205795
#        215290
#        231172
#        250885
#        263995
#
# Disc length: 3683 seconds
#
# Revision: 4
# Processed by: cddbd v1.5.1PL0 Copyright (c) Steve Scherf et al.
# Submitted via: ExactAudioCopy v0.95a4
#
DISCID=dd0e6110
DTITLE=Johnny Winter - White Hot Blues
DYEAR=1997
DGENRE=Blues
TTITLE0=Rock Me Baby
TTITLE1=Divin' Duck
TTITLE2=Memory Pain
TTITLE3=Rollin' and Tumblin'
TTITLE4=Be Careful With A Fool
TTITLE5=I Love Everybody
TTITLE6=New York, New York
TTITLE7=Walkin' By Myself
TTITLE8=Leland Mississippi Blues
TTITLE9=TV Mama
TTITLE10=Highway 61 Revisited
TTITLE11=The Crawl
TTITLE12=Hustled Down In Texas
TTITLE13=Too Much Seconal
TTITLE14=Messin' With the Kid
TTITLE15=Johnny B. Goode (Live)
EXTD=LABEL =Sony Music Entertainment Inc.\nID =CK65213\nUPC =07464-
EXTD=65213-28\nCOPYRIGHT =1997
EXTT0=
EXTT1=
EXTT2=
EXTT3=
EXTT4=
EXTT5=
EXTT6=
EXTT7=
EXTT8=
EXTT9=
EXTT10=
EXTT11=
EXTT12=
EXTT13=
EXTT14=
EXTT15=
PLAYORDER=
